<svg width="64" height="64" viewBox="0 0 64 64" fill="none" xmlns="http://www.w3.org/2000/svg">
<circle cx="32" cy="32" r="31.5" transform="rotate(-90 32 32)" fill="#1C1C1C" stroke="#7EA3FF"/>
<path d="M40.3644 31.2929C40.5519 31.4804 40.6572 31.7347 40.6572 31.9999C40.6572 32.2651 40.5519 32.5194 40.3644 32.7069L34.7074 38.3639C34.6152 38.4594 34.5048 38.5356 34.3828 38.588C34.2608 38.6404 34.1296 38.668 33.9968 38.6692C33.8641 38.6703 33.7324 38.645 33.6095 38.5947C33.4866 38.5444 33.3749 38.4702 33.281 38.3763C33.1872 38.2824 33.1129 38.1708 33.0626 38.0479C33.0123 37.925 32.987 37.7933 32.9882 37.6605C32.9893 37.5277 33.0169 37.3965 33.0693 37.2745C33.1217 37.1525 33.1979 37.0421 33.2934 36.9499L37.2434 32.9999H24.0004C23.7352 32.9999 23.4809 32.8945 23.2933 32.707C23.1058 32.5195 23.0004 32.2651 23.0004 31.9999C23.0004 31.7347 23.1058 31.4803 23.2933 31.2928C23.4809 31.1053 23.7352 30.9999 24.0004 30.9999L37.2434 30.9999L33.2934 27.0499C33.1113 26.8613 33.0105 26.6087 33.0128 26.3465C33.015 26.0843 33.1202 25.8335 33.3056 25.6481C33.491 25.4627 33.7418 25.3575 34.004 25.3552C34.2662 25.3529 34.5188 25.4537 34.7074 25.6359L40.3644 31.2929Z" fill="white"/>
</svg>
